<svg width="64" height="64" viewBox="0 0 64 64" fill="none" xmlns="http://www.w3.org/2000/svg">
<rect width="64" height="64" rx="32" fill="#EFE728"/>
<path d="M16.6772 44V22.3H25.5122C26.6902 22.3 27.7545 22.5997 28.7052 23.199C29.6765 23.7777 30.4515 24.5733 31.0302 25.586C31.6088 26.5987 31.8982 27.725 31.8982 28.965C31.8982 30.205 31.6088 31.3313 31.0302 32.344C30.4515 33.3567 29.6765 34.173 28.7052 34.793C27.7545 35.3923 26.6902 35.692 25.5122 35.692H20.0252V44H16.6772ZM20.0252 32.468H25.4502C26.0082 32.468 26.5145 32.313 26.9692 32.003C27.4238 31.6723 27.7855 31.2487 28.0542 30.732C28.3435 30.1947 28.4882 29.6057 28.4882 28.965C28.4882 28.3243 28.3435 27.7457 28.0542 27.229C27.7855 26.7123 27.4238 26.299 26.9692 25.989C26.5145 25.679 26.0082 25.524 25.4502 25.524H20.0252V32.468ZM40.3546 44L40.2306 43.69L46.6786 29.988L46.7716 32.561C46.2963 33.367 45.7383 34.0697 45.0976 34.669C44.457 35.2477 43.7646 35.692 43.0206 36.002C42.2766 36.312 41.5223 36.467 40.7576 36.467C39.5796 36.467 38.4946 36.157 37.5026 35.537C36.5106 34.917 35.715 34.0903 35.1156 33.057C34.5163 32.0237 34.2166 30.8973 34.2166 29.678C34.2166 28.2107 34.5473 26.8983 35.2086 25.741C35.87 24.563 36.769 23.633 37.9056 22.951C39.063 22.269 40.3546 21.928 41.7806 21.928C42.814 21.928 43.7853 22.114 44.6946 22.486C45.604 22.858 46.3996 23.385 47.0816 24.067C47.7636 24.7283 48.301 25.5033 48.6936 26.392C49.0863 27.26 49.2826 28.19 49.2826 29.182C49.2826 29.6987 49.231 30.2567 49.1276 30.856C49.0243 31.4347 48.8486 32.096 48.6006 32.84C48.3733 33.5633 48.0633 34.4003 47.6706 35.351C47.278 36.281 46.7923 37.366 46.2136 38.606L43.6406 44H40.3546ZM41.4706 33.367C42.2766 33.367 43 33.1913 43.6406 32.84C44.2813 32.468 44.7773 31.9823 45.1286 31.383C45.5006 30.763 45.6866 30.0707 45.6866 29.306C45.6866 28.5 45.511 27.7767 45.1596 27.136C44.8083 26.4747 44.3123 25.958 43.6716 25.586C43.0516 25.214 42.3386 25.028 41.5326 25.028C40.7886 25.028 40.1273 25.214 39.5486 25.586C38.97 25.9373 38.505 26.4333 38.1536 27.074C37.823 27.694 37.6576 28.4277 37.6576 29.275C37.6576 29.9983 37.823 30.67 38.1536 31.29C38.505 31.91 38.97 32.4163 39.5486 32.809C40.1273 33.181 40.768 33.367 41.4706 33.367Z" fill="black"/>
</svg>
