<svg width="563" height="51" viewBox="0 0 563 51" fill="none" xmlns="http://www.w3.org/2000/svg">
<path d="M17.1512 1.60413C24.409 1.60413 29.7203 3.02269 33.0852 5.8598C36.5162 8.63094 38.2316 12.9526 38.2316 18.8248C38.2316 24.6309 36.5162 28.9196 33.0852 31.6907C29.6543 34.3959 24.376 35.7485 17.2502 35.7485H8.73885V50H0.524414V1.60413H17.1512ZM18.1409 28.4248C22.4955 28.4248 25.5306 27.6 27.2461 25.9505C29.0275 24.301 29.9182 21.6949 29.9182 18.132C29.9182 14.833 28.8955 12.4907 26.8502 11.1052C24.8048 9.7196 21.5059 9.02681 16.9533 9.02681H8.73885V28.4248H18.1409Z" fill="#F5F5F5"/>
<path d="M63.3219 50V1.60413H71.5364V42.2804H93.6065V50H63.3219Z" fill="#F5F5F5"/>
<path d="M124.698 39.0144L119.849 50H111.14L132.517 1.60413H141.226L162.504 50H153.795L148.946 39.0144H124.698ZM145.68 31.3938L136.871 11.501L128.063 31.3938H145.68Z" fill="#F5F5F5"/>
<path d="M202.914 9.02681V50H194.699V9.02681H180.052V1.60413H217.561V9.02681H202.914Z" fill="#F5F5F5"/>
<path d="M250.085 9.22475V22.4866H271.561V30.0083H250.085V50H241.871V1.60413H274.135L274.036 9.22475H250.085Z" fill="#F5F5F5"/>
<path d="M321.504 7.83918C316.687 7.83918 312.63 9.55465 309.331 12.9856C306.032 16.4165 304.382 20.5732 304.382 25.4557C304.382 30.3382 306.032 34.4949 309.331 37.9258C312.63 41.2907 316.687 42.9732 321.504 42.9732C326.32 42.9732 330.378 41.2907 333.677 37.9258C336.976 34.4949 338.626 30.3382 338.626 25.4557C338.626 20.5732 336.976 16.4165 333.677 12.9856C330.378 9.55465 326.32 7.83918 321.504 7.83918ZM321.504 50.4949C314.246 50.4949 308.176 48.1196 303.294 43.3691C298.411 38.5526 295.97 32.5815 295.97 25.4557C295.97 18.3299 298.411 12.3918 303.294 7.64125C308.176 2.82475 314.246 0.416504 321.504 0.416504C328.762 0.416504 334.832 2.82475 339.714 7.64125C344.597 12.3918 347.038 18.3299 347.038 25.4557C347.038 32.5815 344.564 38.5196 339.615 43.2701C334.667 48.0866 328.63 50.4949 321.504 50.4949Z" fill="#F5F5F5"/>
<path d="M400.922 32.3835L413.59 50H403.198L391.619 33.6701H380.93V50H372.716V1.60413H390.728C398.052 1.60413 403.297 2.85774 406.464 5.36496C409.697 7.80619 411.314 11.7979 411.314 17.3402C411.314 25.3237 407.85 30.3382 400.922 32.3835ZM391.025 26.3464C395.578 26.3464 398.712 25.6536 400.427 24.2681C402.142 22.8825 403 20.5402 403 17.2412C403 14.0742 402.142 11.9299 400.427 10.8083C398.712 9.62063 395.644 9.02681 391.223 9.02681H380.93V26.3464H391.025Z" fill="#F5F5F5"/>
<path d="M446.728 50H438.513V1.60413H451.28L465.829 31.9876L480.476 1.60413H493.144V50H485.029V12.1938L468.105 45.7443H463.552L446.728 12.1938V50Z" fill="#F5F5F5"/>
<path d="M554.655 27.0392C553.401 28.4907 551.652 29.7443 549.409 30.8C547.232 31.8556 544.89 32.3835 542.382 32.3835C538.028 32.3835 534.399 30.9319 531.496 28.0288C528.593 25.1258 527.141 21.299 527.141 16.5484C527.141 11.7979 528.692 7.97111 531.793 5.06802C534.894 2.16492 538.885 0.713379 543.768 0.713379C547.463 0.713379 550.597 1.47214 553.17 2.98967C555.743 4.44122 557.657 6.45359 558.91 9.02678C560.164 11.534 561.055 14.0412 561.582 16.5484C562.11 18.9897 562.374 21.6288 562.374 24.466C562.374 33.901 560.395 40.6969 556.436 44.8536C552.807 48.6804 548.386 50.5938 543.174 50.5938C537.962 50.5938 533.211 48.9443 528.923 45.6453L532.98 39.6082C534.102 40.5979 535.52 41.4556 537.236 42.1814C539.017 42.8412 540.601 43.1711 541.986 43.1711C550.3 43.1711 554.523 37.7938 554.655 27.0392ZM553.269 16.8453C553.269 14.3381 552.378 12.2268 550.597 10.5113C548.815 8.72988 546.572 7.83915 543.867 7.83915C541.162 7.83915 538.918 8.63091 537.137 10.2144C535.422 11.7979 534.564 13.8433 534.564 16.3505C534.564 18.9237 535.356 21.035 536.939 22.6845C538.589 24.334 540.799 25.1587 543.57 25.1587C546.341 25.1587 548.65 24.4 550.498 22.8825C552.345 21.299 553.269 19.2866 553.269 16.8453Z" fill="#FFF500"/>
</svg>
